<svg width="14" height="14" viewBox="0 0 14 14" fill="none" xmlns="http://www.w3.org/2000/svg">
<path d="M5.25 6.41666H4.08333V7.58332H5.25V6.41666ZM7.58333 6.41666H6.41667V7.58332H7.58333V6.41666ZM9.91667 6.41666H8.75V7.58332H9.91667V6.41666ZM11.0833 2.33332H10.5V1.16666H9.33333V2.33332H4.66667V1.16666H3.5V2.33332H2.91667C2.26917 2.33332 1.75583 2.85832 1.75583 3.49999L1.75 11.6667C1.75 12.3083 2.26917 12.8333 2.91667 12.8333H11.0833C11.725 12.8333 12.25 12.3083 12.25 11.6667V3.49999C12.25 2.85832 11.725 2.33332 11.0833 2.33332ZM11.0833 11.6667H2.91667V5.24999H11.0833V11.6667Z" fill="currentColor"/>
</svg>
