<svg width="12" height="10" viewBox="0 0 12 10" fill="none" xmlns="http://www.w3.org/2000/svg">
<path fill-rule="evenodd" clip-rule="evenodd" d="M4.16667 1.66667H7.5V0.833333H4.16667V1.66667ZM1.875 1.66667V10H1.45833C0.657552 10 0 9.34245 0 8.54167V3.125C0 2.32422 0.657552 1.66667 1.45833 1.66667H1.875ZM9.16667 1.66667V10H2.5V1.66667H3.33333V0.625C3.33333 0.279948 3.61328 0 3.95833 0H7.70833C8.05339 0 8.33333 0.279948 8.33333 0.625V1.66667H9.16667ZM11.6667 3.125V8.54167C11.6667 9.34245 11.0091 10 10.2083 10H9.79167V1.66667H10.2083C11.0091 1.66667 11.6667 2.32422 11.6667 3.125Z" fill="currentColor"/>
</svg>
