<svg width="19" height="23" viewBox="0 0 19 23" fill="none" xmlns="http://www.w3.org/2000/svg">
<path fill-rule="evenodd" clip-rule="evenodd" d="M16.3333 15.75V9.91667C16.3333 6.335 14.4317 3.33667 11.0833 2.54333V1.75C11.0833 0.781667 10.3017 0 9.33333 0C8.365 0 7.58333 0.781667 7.58333 1.75V2.54333C4.24667 3.33667 2.33333 6.32333 2.33333 9.91667V15.75L0 18.0833V19.25H18.6667V18.0833L16.3333 15.75ZM9.33333 22.75C10.6167 22.75 11.6667 21.7 11.6667 20.4167H7C7 21.7 8.05 22.75 9.33333 22.75ZM4.66667 16.9167H14V9.91667C14 7.02333 12.2383 4.66667 9.33333 4.66667C6.42833 4.66667 4.66667 7.02333 4.66667 9.91667V16.9167Z" fill="#53605E"/>
</svg>
